<svg id="SvgjsSvg1015" xmlns="http://www.w3.org/2000/svg" version="1.1" width="19" height="25" viewBox="0 0 19 25"><title>Shape</title><path id="SvgjsPath1017" d="M848.23 603c-1.78 0-3.23 1.43-3.23 3.18 0 1.76 1.45 3.18 3.23 3.18s3.23-1.42 3.23-3.18c0-1.75-1.45-3.18-3.23-3.18zm0 5.45c-1.27 0-2.31-1.01-2.31-2.27 0-1.25 1.04-2.27 2.31-2.27s2.31 1.02 2.31 2.27c0 1.26-1.04 2.27-2.31 2.27z" fill="#000" fill-opacity="1" transform="translate(-838 -598)"/><path id="SvgjsPath1018" d="M854.11 600.55a8.877 8.877 0 0 0-6.26-2.55c-2.36 0-4.59.91-6.26 2.55-3.09 3.05-3.48 8.78-.83 12.25l7.09 10.09 7.08-10.07c2.66-3.49 2.27-9.22-.82-12.27zm.07 11.74l-6.33 9-6.34-9.02c-2.4-3.15-2.06-8.32.74-11.07a7.888 7.888 0 0 1 5.6-2.29c2.12 0 4.11.81 5.61 2.29 2.79 2.75 3.13 7.92.72 11.09z" fill="#000" fill-opacity="1" transform="translate(-838 -598)"/></svg>